<svg width="12" height="20" viewBox="0 0 12 20" fill="none" xmlns="http://www.w3.org/2000/svg">
<path d="M1.8 3.6C2.79412 3.6 3.6 2.79412 3.6 1.8C3.6 0.805884 2.79412 0 1.8 0C0.805884 0 0 0.805884 0 1.8C0 2.79412 0.805884 3.6 1.8 3.6ZM1.8 11.4C2.79412 11.4 3.6 10.5941 3.6 9.6C3.6 8.60592 2.79412 7.8 1.8 7.8C0.805884 7.8 0 8.60592 0 9.6C0 10.5941 0.805884 11.4 1.8 11.4ZM3.6 17.4C3.6 18.3941 2.79412 19.2 1.8 19.2C0.805884 19.2 0 18.3941 0 17.4C0 16.4059 0.805884 15.6 1.8 15.6C2.79412 15.6 3.6 16.4059 3.6 17.4ZM10.2 3.6C11.1941 3.6 12 2.79412 12 1.8C12 0.805884 11.1941 0 10.2 0C9.20592 0 8.4 0.805884 8.4 1.8C8.4 2.79412 9.20592 3.6 10.2 3.6ZM12 9.6C12 10.5941 11.1941 11.4 10.2 11.4C9.20592 11.4 8.4 10.5941 8.4 9.6C8.4 8.60592 9.20592 7.8 10.2 7.8C11.1941 7.8 12 8.60592 12 9.6ZM10.2 19.2C11.1941 19.2 12 18.3941 12 17.4C12 16.4059 11.1941 15.6 10.2 15.6C9.20592 15.6 8.4 16.4059 8.4 17.4C8.4 18.3941 9.20592 19.2 10.2 19.2Z" fill="#7D92AD"/>
</svg>
