<svg width="32" height="32" viewBox="0 0 32 32" fill="none" xmlns="http://www.w3.org/2000/svg">
<path d="M12.5289 0.79225C14.8136 0.270789 17.1864 0.270789 19.4711 0.79225C21.7557 1.31371 23.8936 2.34323 25.7257 3.80433C27.5579 5.26543 29.0373 7.12056 30.0541 9.23191C31.0708 11.3433 31.5988 13.6566 31.5988 16C31.5988 18.3434 31.0708 20.6567 30.0541 22.7681C29.0373 24.8794 27.5579 26.7346 25.7257 28.1957C23.8936 29.6568 21.7557 30.6863 19.4711 31.2078C17.1864 31.7292 14.8136 31.7292 12.5289 31.2078C10.2443 30.6863 8.10644 29.6568 6.27428 28.1957C4.44212 26.7346 2.9627 24.8794 1.94592 22.7681C0.929152 20.6567 0.401154 18.3434 0.401154 16C0.401154 13.6566 0.929152 11.3433 1.94592 9.23191C2.9627 7.12056 4.44212 5.26543 6.27428 3.80433C8.10644 2.34323 10.2443 1.31371 12.5289 0.79225Z" fill="url(#paint0_radial_1884_13016)"/>
<g clip-path="url(#clip0_1884_13016)">
<path d="M10.5 17L14 20.5L22 12.5" stroke="white" stroke-width="2.5" stroke-linecap="round" stroke-linejoin="round"/>
</g>
<defs>
<radialGradient id="paint0_radial_1884_13016" cx="0" cy="0" r="1" gradientUnits="userSpaceOnUse" gradientTransform="translate(0.745521 11.6364) rotate(21.6711) scale(37.0256 322.777)">
<stop stop-color="#6F4AF2"/>
<stop offset="1" stop-color="#23048E"/>
</radialGradient>
<clipPath id="clip0_1884_13016">
<rect width="16" height="16" fill="white" transform="translate(8 8)"/>
</clipPath>
</defs>
</svg>
